<mxfile host="app.diagrams.net" modified="2023-05-08T11:17:35.428Z" agent="Mozilla/5.0 (Windows NT 10.0; Win64; x64) AppleWebKit/537.36 (KHTML, like Gecko) Chrome/112.0.0.0 Safari/537.36" etag="IDqQGngsh6K3stx9GENY" version="21.2.9" type="github">
  <diagram name="Page-1" id="JUzgMOT4VEamZk6PKcLO">
    <mxGraphModel dx="1313" dy="1816" grid="0" gridSize="10" guides="1" tooltips="1" connect="1" arrows="1" fold="1" page="1" pageScale="1" pageWidth="850" pageHeight="1100" background="#FFFFFF" math="0" shadow="0">
      <root>
        <mxCell id="0" />
        <mxCell id="1" parent="0" />
        <mxCell id="aPahHmvEMXGQyrWEixuD-22" style="edgeStyle=orthogonalEdgeStyle;rounded=0;orthogonalLoop=1;jettySize=auto;html=1;entryX=0.508;entryY=0.056;entryDx=0;entryDy=0;entryPerimeter=0;" edge="1" parent="1" source="aPahHmvEMXGQyrWEixuD-1" target="aPahHmvEMXGQyrWEixuD-9">
          <mxGeometry relative="1" as="geometry" />
        </mxCell>
        <mxCell id="aPahHmvEMXGQyrWEixuD-1" value="Data Preparation" style="ellipse;whiteSpace=wrap;html=1;aspect=fixed;fillColor=#fff2cc;strokeColor=#d6b656;" vertex="1" parent="1">
          <mxGeometry x="315" y="-80" width="90" height="90" as="geometry" />
        </mxCell>
        <mxCell id="aPahHmvEMXGQyrWEixuD-58" style="edgeStyle=orthogonalEdgeStyle;rounded=0;orthogonalLoop=1;jettySize=auto;html=1;entryX=0;entryY=0.5;entryDx=0;entryDy=0;" edge="1" parent="1" source="aPahHmvEMXGQyrWEixuD-2" target="aPahHmvEMXGQyrWEixuD-54">
          <mxGeometry relative="1" as="geometry" />
        </mxCell>
        <mxCell id="aPahHmvEMXGQyrWEixuD-2" value="Model Training" style="ellipse;whiteSpace=wrap;html=1;aspect=fixed;fillColor=#fff2cc;strokeColor=#d6b656;" vertex="1" parent="1">
          <mxGeometry x="132.5" y="538" width="90" height="90" as="geometry" />
        </mxCell>
        <mxCell id="aPahHmvEMXGQyrWEixuD-42" style="edgeStyle=orthogonalEdgeStyle;rounded=0;orthogonalLoop=1;jettySize=auto;html=1;exitX=0.5;exitY=1;exitDx=0;exitDy=0;entryX=0.5;entryY=0;entryDx=0;entryDy=0;" edge="1" parent="1" source="aPahHmvEMXGQyrWEixuD-3" target="aPahHmvEMXGQyrWEixuD-34">
          <mxGeometry relative="1" as="geometry" />
        </mxCell>
        <mxCell id="aPahHmvEMXGQyrWEixuD-3" value="Data Preprocessing" style="ellipse;whiteSpace=wrap;html=1;aspect=fixed;fillColor=#fff2cc;strokeColor=#d6b656;" vertex="1" parent="1">
          <mxGeometry x="470" y="160" width="90" height="90" as="geometry" />
        </mxCell>
        <mxCell id="aPahHmvEMXGQyrWEixuD-4" value="" style="endArrow=none;html=1;rounded=0;" edge="1" parent="1">
          <mxGeometry width="50" height="50" relative="1" as="geometry">
            <mxPoint x="320" y="100" as="sourcePoint" />
            <mxPoint x="400" y="100" as="targetPoint" />
          </mxGeometry>
        </mxCell>
        <mxCell id="aPahHmvEMXGQyrWEixuD-5" value="" style="endArrow=none;html=1;rounded=0;" edge="1" parent="1">
          <mxGeometry width="50" height="50" relative="1" as="geometry">
            <mxPoint x="320" y="130" as="sourcePoint" />
            <mxPoint x="400" y="130" as="targetPoint" />
            <Array as="points">
              <mxPoint x="350" y="130" />
            </Array>
          </mxGeometry>
        </mxCell>
        <mxCell id="aPahHmvEMXGQyrWEixuD-62" style="edgeStyle=orthogonalEdgeStyle;rounded=0;orthogonalLoop=1;jettySize=auto;html=1;exitX=0.5;exitY=0;exitDx=0;exitDy=0;entryX=0.5;entryY=1;entryDx=0;entryDy=0;" edge="1" parent="1" source="aPahHmvEMXGQyrWEixuD-6" target="aPahHmvEMXGQyrWEixuD-61">
          <mxGeometry relative="1" as="geometry" />
        </mxCell>
        <mxCell id="aPahHmvEMXGQyrWEixuD-6" value="Model Evaluation" style="ellipse;whiteSpace=wrap;html=1;aspect=fixed;fillColor=#fff2cc;strokeColor=#d6b656;" vertex="1" parent="1">
          <mxGeometry x="520" y="543" width="80" height="80" as="geometry" />
        </mxCell>
        <mxCell id="aPahHmvEMXGQyrWEixuD-21" style="edgeStyle=orthogonalEdgeStyle;rounded=0;orthogonalLoop=1;jettySize=auto;html=1;entryX=0.5;entryY=0;entryDx=0;entryDy=0;" edge="1" parent="1" source="aPahHmvEMXGQyrWEixuD-9" target="aPahHmvEMXGQyrWEixuD-11">
          <mxGeometry relative="1" as="geometry" />
        </mxCell>
        <mxCell id="aPahHmvEMXGQyrWEixuD-9" value="Dataset" style="text;html=1;align=center;verticalAlign=middle;resizable=0;points=[];autosize=1;strokeColor=none;fillColor=none;" vertex="1" parent="1">
          <mxGeometry x="330" y="100" width="60" height="30" as="geometry" />
        </mxCell>
        <mxCell id="aPahHmvEMXGQyrWEixuD-31" style="edgeStyle=orthogonalEdgeStyle;rounded=0;orthogonalLoop=1;jettySize=auto;html=1;exitX=0;exitY=0.5;exitDx=0;exitDy=0;entryX=1.015;entryY=0.833;entryDx=0;entryDy=0;entryPerimeter=0;" edge="1" parent="1" source="aPahHmvEMXGQyrWEixuD-11" target="aPahHmvEMXGQyrWEixuD-27">
          <mxGeometry relative="1" as="geometry" />
        </mxCell>
        <mxCell id="aPahHmvEMXGQyrWEixuD-40" style="edgeStyle=orthogonalEdgeStyle;rounded=0;orthogonalLoop=1;jettySize=auto;html=1;exitX=1;exitY=0.5;exitDx=0;exitDy=0;" edge="1" parent="1" source="aPahHmvEMXGQyrWEixuD-11" target="aPahHmvEMXGQyrWEixuD-3">
          <mxGeometry relative="1" as="geometry" />
        </mxCell>
        <mxCell id="aPahHmvEMXGQyrWEixuD-11" value="Large enough" style="rhombus;whiteSpace=wrap;html=1;fillColor=#d5e8d4;strokeColor=#82b366;" vertex="1" parent="1">
          <mxGeometry x="320" y="165" width="80" height="80" as="geometry" />
        </mxCell>
        <mxCell id="aPahHmvEMXGQyrWEixuD-23" value="No" style="text;html=1;align=center;verticalAlign=middle;resizable=0;points=[];autosize=1;strokeColor=none;fillColor=none;" vertex="1" parent="1">
          <mxGeometry x="270" y="200" width="40" height="30" as="geometry" />
        </mxCell>
        <mxCell id="aPahHmvEMXGQyrWEixuD-24" value="Yes" style="text;html=1;align=center;verticalAlign=middle;resizable=0;points=[];autosize=1;strokeColor=none;fillColor=none;" vertex="1" parent="1">
          <mxGeometry x="430" y="180" width="40" height="30" as="geometry" />
        </mxCell>
        <mxCell id="aPahHmvEMXGQyrWEixuD-25" value="&lt;font style=&quot;font-size: 11px;&quot;&gt;image colection&lt;/font&gt;" style="text;html=1;align=center;verticalAlign=middle;resizable=0;points=[];autosize=1;strokeColor=none;fillColor=none;rotation=-90;" vertex="1" parent="1">
          <mxGeometry x="325" y="40" width="100" height="30" as="geometry" />
        </mxCell>
        <mxCell id="aPahHmvEMXGQyrWEixuD-26" value="&lt;font style=&quot;font-size: 12px;&quot;&gt;increase data&lt;/font&gt;" style="text;html=1;align=center;verticalAlign=middle;resizable=0;points=[];autosize=1;strokeColor=none;fillColor=none;" vertex="1" parent="1">
          <mxGeometry x="220" y="140" width="100" height="30" as="geometry" />
        </mxCell>
        <mxCell id="aPahHmvEMXGQyrWEixuD-32" style="edgeStyle=orthogonalEdgeStyle;rounded=0;orthogonalLoop=1;jettySize=auto;html=1;entryX=0.049;entryY=0.982;entryDx=0;entryDy=0;entryPerimeter=0;" edge="1" parent="1" source="aPahHmvEMXGQyrWEixuD-27" target="aPahHmvEMXGQyrWEixuD-9">
          <mxGeometry relative="1" as="geometry">
            <Array as="points">
              <mxPoint x="333" y="170" />
            </Array>
          </mxGeometry>
        </mxCell>
        <mxCell id="aPahHmvEMXGQyrWEixuD-27" value="Data Augmentation" style="rounded=0;whiteSpace=wrap;html=1;fillColor=#dae8fc;strokeColor=#6c8ebf;" vertex="1" parent="1">
          <mxGeometry x="90" y="150" width="110" height="60" as="geometry" />
        </mxCell>
        <mxCell id="aPahHmvEMXGQyrWEixuD-48" style="edgeStyle=orthogonalEdgeStyle;rounded=0;orthogonalLoop=1;jettySize=auto;html=1;entryX=1;entryY=0.5;entryDx=0;entryDy=0;" edge="1" parent="1" source="aPahHmvEMXGQyrWEixuD-34" target="aPahHmvEMXGQyrWEixuD-7">
          <mxGeometry relative="1" as="geometry" />
        </mxCell>
        <mxCell id="aPahHmvEMXGQyrWEixuD-34" value="Data split into training and testing data" style="rounded=0;whiteSpace=wrap;html=1;fillColor=#dae8fc;strokeColor=#6c8ebf;" vertex="1" parent="1">
          <mxGeometry x="455" y="310" width="120" height="60" as="geometry" />
        </mxCell>
        <mxCell id="aPahHmvEMXGQyrWEixuD-37" value="Preprocesed data" style="text;html=1;align=center;verticalAlign=middle;resizable=0;points=[];autosize=1;strokeColor=none;fillColor=none;" vertex="1" parent="1">
          <mxGeometry x="400" y="267.5" width="120" height="30" as="geometry" />
        </mxCell>
        <mxCell id="aPahHmvEMXGQyrWEixuD-51" style="edgeStyle=orthogonalEdgeStyle;rounded=0;orthogonalLoop=1;jettySize=auto;html=1;entryX=0.5;entryY=0;entryDx=0;entryDy=0;" edge="1" parent="1" source="aPahHmvEMXGQyrWEixuD-7" target="aPahHmvEMXGQyrWEixuD-2">
          <mxGeometry relative="1" as="geometry" />
        </mxCell>
        <mxCell id="aPahHmvEMXGQyrWEixuD-7" value="Model Selection" style="ellipse;whiteSpace=wrap;html=1;aspect=fixed;fillColor=#fff2cc;strokeColor=#d6b656;" vertex="1" parent="1">
          <mxGeometry x="135" y="297.5" width="85" height="85" as="geometry" />
        </mxCell>
        <mxCell id="aPahHmvEMXGQyrWEixuD-49" value="training data sent to pre-trained model" style="text;html=1;align=center;verticalAlign=middle;resizable=0;points=[];autosize=1;strokeColor=none;fillColor=none;" vertex="1" parent="1">
          <mxGeometry x="215" y="340" width="230" height="30" as="geometry" />
        </mxCell>
        <mxCell id="aPahHmvEMXGQyrWEixuD-53" value="Fine tune training dataset" style="text;html=1;align=center;verticalAlign=middle;resizable=0;points=[];autosize=1;strokeColor=none;fillColor=none;rotation=-90;" vertex="1" parent="1">
          <mxGeometry x="80" y="445" width="160" height="30" as="geometry" />
        </mxCell>
        <mxCell id="aPahHmvEMXGQyrWEixuD-55" style="edgeStyle=orthogonalEdgeStyle;rounded=0;orthogonalLoop=1;jettySize=auto;html=1;entryX=0;entryY=0.5;entryDx=0;entryDy=0;" edge="1" parent="1" source="aPahHmvEMXGQyrWEixuD-54" target="aPahHmvEMXGQyrWEixuD-6">
          <mxGeometry relative="1" as="geometry" />
        </mxCell>
        <mxCell id="aPahHmvEMXGQyrWEixuD-54" value="Hyperparameters" style="rounded=0;whiteSpace=wrap;html=1;fillColor=#dae8fc;strokeColor=#6c8ebf;" vertex="1" parent="1">
          <mxGeometry x="305" y="553" width="120" height="60" as="geometry" />
        </mxCell>
        <mxCell id="aPahHmvEMXGQyrWEixuD-59" value="train dataset" style="text;html=1;align=center;verticalAlign=middle;resizable=0;points=[];autosize=1;strokeColor=none;fillColor=none;" vertex="1" parent="1">
          <mxGeometry x="220" y="560" width="90" height="30" as="geometry" />
        </mxCell>
        <mxCell id="aPahHmvEMXGQyrWEixuD-60" value="evaluate model" style="text;html=1;align=center;verticalAlign=middle;resizable=0;points=[];autosize=1;strokeColor=none;fillColor=none;" vertex="1" parent="1">
          <mxGeometry x="420" y="560" width="100" height="30" as="geometry" />
        </mxCell>
        <mxCell id="aPahHmvEMXGQyrWEixuD-64" style="edgeStyle=orthogonalEdgeStyle;rounded=0;orthogonalLoop=1;jettySize=auto;html=1;entryX=0.78;entryY=0.916;entryDx=0;entryDy=0;entryPerimeter=0;" edge="1" parent="1" source="aPahHmvEMXGQyrWEixuD-61" target="aPahHmvEMXGQyrWEixuD-7">
          <mxGeometry relative="1" as="geometry" />
        </mxCell>
        <mxCell id="aPahHmvEMXGQyrWEixuD-80" style="edgeStyle=orthogonalEdgeStyle;rounded=0;orthogonalLoop=1;jettySize=auto;html=1;entryX=0;entryY=0;entryDx=0;entryDy=0;" edge="1" parent="1" source="aPahHmvEMXGQyrWEixuD-61" target="aPahHmvEMXGQyrWEixuD-70">
          <mxGeometry relative="1" as="geometry" />
        </mxCell>
        <mxCell id="aPahHmvEMXGQyrWEixuD-61" value="Performance Satisfactory" style="rhombus;whiteSpace=wrap;html=1;fillColor=#d5e8d4;strokeColor=#82b366;" vertex="1" parent="1">
          <mxGeometry x="512.5" y="430" width="95" height="90" as="geometry" />
        </mxCell>
        <mxCell id="aPahHmvEMXGQyrWEixuD-65" value="No" style="text;html=1;align=center;verticalAlign=middle;resizable=0;points=[];autosize=1;strokeColor=none;fillColor=none;" vertex="1" parent="1">
          <mxGeometry x="460" y="445" width="40" height="30" as="geometry" />
        </mxCell>
        <mxCell id="aPahHmvEMXGQyrWEixuD-67" value="Yes" style="text;html=1;align=center;verticalAlign=middle;resizable=0;points=[];autosize=1;strokeColor=none;fillColor=none;" vertex="1" parent="1">
          <mxGeometry x="600" y="450" width="40" height="30" as="geometry" />
        </mxCell>
        <mxCell id="aPahHmvEMXGQyrWEixuD-76" style="edgeStyle=orthogonalEdgeStyle;rounded=0;orthogonalLoop=1;jettySize=auto;html=1;entryX=0.5;entryY=1;entryDx=0;entryDy=0;" edge="1" parent="1" source="aPahHmvEMXGQyrWEixuD-70" target="aPahHmvEMXGQyrWEixuD-74">
          <mxGeometry relative="1" as="geometry">
            <mxPoint x="730" y="520" as="targetPoint" />
          </mxGeometry>
        </mxCell>
        <mxCell id="aPahHmvEMXGQyrWEixuD-70" value="Add model to selected model" style="rounded=0;whiteSpace=wrap;html=1;fillColor=#dae8fc;strokeColor=#6c8ebf;" vertex="1" parent="1">
          <mxGeometry x="630" y="545" width="80" height="60" as="geometry" />
        </mxCell>
        <mxCell id="aPahHmvEMXGQyrWEixuD-78" style="edgeStyle=orthogonalEdgeStyle;rounded=0;orthogonalLoop=1;jettySize=auto;html=1;entryX=0.5;entryY=0;entryDx=0;entryDy=0;" edge="1" parent="1" source="aPahHmvEMXGQyrWEixuD-74" target="aPahHmvEMXGQyrWEixuD-61">
          <mxGeometry relative="1" as="geometry" />
        </mxCell>
        <mxCell id="aPahHmvEMXGQyrWEixuD-86" style="edgeStyle=orthogonalEdgeStyle;rounded=0;orthogonalLoop=1;jettySize=auto;html=1;entryX=0.5;entryY=1;entryDx=0;entryDy=0;" edge="1" parent="1" source="aPahHmvEMXGQyrWEixuD-74" target="aPahHmvEMXGQyrWEixuD-84">
          <mxGeometry relative="1" as="geometry" />
        </mxCell>
        <mxCell id="aPahHmvEMXGQyrWEixuD-74" value="All models evaluated" style="rhombus;whiteSpace=wrap;html=1;fillColor=#d5e8d4;strokeColor=#82b366;" vertex="1" parent="1">
          <mxGeometry x="690" y="410" width="80" height="80" as="geometry" />
        </mxCell>
        <mxCell id="aPahHmvEMXGQyrWEixuD-84" value="Compare effiency of all selected models" style="whiteSpace=wrap;html=1;fillColor=#dae8fc;strokeColor=#6c8ebf;" vertex="1" parent="1">
          <mxGeometry x="670" y="290" width="120" height="60" as="geometry" />
        </mxCell>
        <mxCell id="aPahHmvEMXGQyrWEixuD-85" value="No" style="text;html=1;align=center;verticalAlign=middle;resizable=0;points=[];autosize=1;strokeColor=none;fillColor=none;" vertex="1" parent="1">
          <mxGeometry x="650" y="420" width="40" height="30" as="geometry" />
        </mxCell>
      </root>
    </mxGraphModel>
  </diagram>
</mxfile>
